# xmcd
#
# Track frame offsets:
#	150
#	10912
#	22445
#	31212
#	41330
#	52607
#	67405
#	86127
#	100272
#	103747
#	113220
#	127742
#	137697
#	152840
#	164585
#	179808
#	193070
#	202707
#	211710
#	227481
#	236048
#	254056
#	267271
#	279611
#	288063
#	304486
#	321428
#
# Disc length: 4656 seconds
#
# Revision: 0
# Processed by: cddbd v1.4PL0 Copyright (c) Steve Scherf et al.
# Submitted via: audiograbber 1.81.03
#
DISCID=8f122e1b
DTITLE=System Of A Down - Alternative Collection
DYEAR=2003
DGENRE=Alternative Rock
TTITLE0=Chic'N'Stu
TTITLE1=Innervision
TTITLE2=Bubbies
TTITLE3=Boom!
TTITLE4=Nuguns
TTITLE5=A.D.D.
TTITLE6=Mr.Jack
TTITLE7=I-E-A-I-A-I-O
TTITLE8=36
TTITLE9=Pictures
TTITLE10=Highway Song
TTITLE11=Fuck The System
TTITLE12=Ego Brain
TTITLE13=Thetawaves
TTITLE14=Roulette
TTITLE15=Deer Dance
TTITLE16=Jet Pilot
TTITLE17=X
TTITLE18=Chop Suey!
TTITLE19=Bounce
TTITLE20=Forest
TTITLE21=Atwa
TTITLE22=Science
TTITLE23=Shimmy
TTITLE24=Toxicity
TTITLE25=Psycho
TTITLE26=Aerials
EXTD=
EXTT0=
EXTT1=
EXTT2=
EXTT3=
EXTT4=
EXTT5=
EXTT6=
EXTT7=
EXTT8=
EXTT9=
EXTT10=
EXTT11=
EXTT12=
EXTT13=
EXTT14=
EXTT15=
EXTT16=
EXTT17=
EXTT18=
EXTT19=
EXTT20=
EXTT21=
EXTT22=
EXTT23=
EXTT24=
EXTT25=
EXTT26=
PLAYORDER=
